<svg xmlns="http://www.w3.org/2000/svg" xmlns:svg="http://www.w3.org/2000/svg" id="svg2" width="1150" height="1150" version="1.1"><metadata id="metadata7"/><g id="capa1" transform="translate(249.05988,240.01155)"><g id="g4400"><path id="path3043" fill="#000" fill-rule="evenodd" stroke="none" d="m 1079.9999,549.56696 a 581.42853,608.57141 0 1 1 -1162.857017,0 581.42853,608.57141 0 1 1 1162.857017,0 z" transform="matrix(0.98894356,0,0,0.94483571,-167.11887,-184.26203)"/><g id="g4003"><path id="path3044" fill="none" stroke="#fff" stroke-dasharray="none" stroke-linecap="butt" stroke-linejoin="miter" stroke-miterlimit="4" stroke-opacity="1" stroke-width="32.106" d="M 535.33275,555.89637 C 545.91688,667.73421 471.5102,740.38986 324.80298,766.42604"/><path id="path3042" fill="none" stroke="#fff" stroke-dasharray="none" stroke-linecap="butt" stroke-linejoin="miter" stroke-miterlimit="4" stroke-opacity="1" stroke-width="32.106" d="m 116.6337,555.89637 c -10.58412,111.83784 63.82254,184.49349 210.52977,210.52967"/><path id="path3040" fill="none" stroke="#fff" stroke-dasharray="none" stroke-linecap="butt" stroke-linejoin="miter" stroke-miterlimit="4" stroke-opacity="1" stroke-width="32.106" d="M 535.438,124.73131 C 546.02214,12.893477 471.61547,-59.762188 324.90825,-85.798359"/><path id="path3872" fill="#fff" stroke="#fff" stroke-dasharray="none" stroke-linecap="butt" stroke-linejoin="miter" stroke-miterlimit="4" stroke-opacity="1" stroke-width="9.474" d="M 748.223,339.15557 537.69324,128.62581"/><path id="path3870" fill="none" stroke="#fff" stroke-dasharray="none" stroke-linecap="butt" stroke-linejoin="miter" stroke-miterlimit="4" stroke-opacity="1" stroke-width="9.474" d="M -93.896065,339.15557 116.6337,128.62581"/><path id="path3812" fill="#fff" stroke="#fff" stroke-dasharray="none" stroke-linecap="butt" stroke-linejoin="miter" stroke-miterlimit="4" stroke-opacity="1" stroke-width="9.474" d="m 748.223,339.15559 -210.52976,0"/><path id="path3810" fill="none" stroke="#fff" stroke-dasharray="none" stroke-linecap="butt" stroke-linejoin="miter" stroke-miterlimit="4" stroke-opacity="1" stroke-width="32.106" d="m 537.69324,339.15559 -210.52977,0"/><path id="path3807" fill="none" stroke="#fff" stroke-dasharray="none" stroke-linecap="butt" stroke-linejoin="miter" stroke-miterlimit="4" stroke-opacity="1" stroke-width="32.106" d="m 327.16347,339.15559 -210.52977,0"/><path id="path3805" fill="#fff" stroke="#fff" stroke-dasharray="none" stroke-linecap="butt" stroke-linejoin="miter" stroke-miterlimit="4" stroke-opacity="1" stroke-width="9.474" d="m -93.896065,339.15559 210.529765,0"/><path id="path3031" fill="none" stroke="#fff" stroke-dasharray="none" stroke-linecap="butt" stroke-linejoin="miter" stroke-miterlimit="4" stroke-opacity="1" stroke-width="32.106" d="M 116.6337,124.73131 C 106.04958,12.893502 180.45624,-59.762163 327.16347,-85.798333"/><path id="path3797" fill="#999" stroke="#fff" stroke-dasharray="none" stroke-linecap="butt" stroke-linejoin="miter" stroke-miterlimit="4" stroke-opacity="1" stroke-width="9.474" d="M -93.896065,339.15559 116.6337,549.68536"/><path id="path3801" fill="#fff" stroke="#fff" stroke-dasharray="none" stroke-linecap="butt" stroke-linejoin="miter" stroke-miterlimit="4" stroke-opacity="1" stroke-width="9.474" d="M 748.223,339.15559 537.69324,549.68536"/><path id="path3813" fill="none" stroke="#fff" stroke-dasharray="none" stroke-linecap="butt" stroke-linejoin="miter" stroke-miterlimit="4" stroke-opacity="1" stroke-width="9.474" d="M 327.16347,339.15566 116.6337,128.62589"/><path id="path3819" fill="#fff" stroke="#fff" stroke-dasharray="none" stroke-linecap="butt" stroke-linejoin="miter" stroke-miterlimit="4" stroke-opacity="1" stroke-width="9.474" d="M 327.16347,339.15566 537.69324,128.62589"/><path id="path3039" fill="#fff" stroke="#fff" stroke-dasharray="none" stroke-linecap="butt" stroke-linejoin="miter" stroke-miterlimit="4" stroke-opacity="1" stroke-width="9.474" d="m 327.16347,339.15566 0,210.52976"/><path id="path3862" fill="#fff" stroke="#fff" stroke-dasharray="none" stroke-linecap="butt" stroke-linejoin="miter" stroke-miterlimit="4" stroke-opacity="1" stroke-width="9.474" d="m 327.16347,128.62589 0,210.52977"/><path id="path3822" fill="#fff" stroke="#fff" stroke-dasharray="none" stroke-linecap="butt" stroke-linejoin="miter" stroke-miterlimit="4" stroke-opacity="1" stroke-width="10.615" d="M 535.9435,130.37564 642.15428,24.16485"/><path id="path3817" fill="#000" stroke="#fff" stroke-dasharray="none" stroke-linecap="butt" stroke-linejoin="miter" stroke-miterlimit="4" stroke-opacity="1" stroke-width="10.615" d="M 118.6975,130.68969 23.653158,35.645346"/><path id="path3815" fill="none" stroke="#fff" stroke-dasharray="none" stroke-linecap="butt" stroke-linejoin="miter" stroke-miterlimit="4" stroke-opacity="1" stroke-width="9.474" d="M 116.6337,549.68542 327.16347,339.15566"/><path id="path3811" fill="none" stroke="#fff" stroke-dasharray="none" stroke-linecap="butt" stroke-linejoin="miter" stroke-miterlimit="4" stroke-opacity="1" stroke-width="10.615" d="M 535.89863,547.89081 640.51421,652.50639"/><path id="path3809" fill="#fff" stroke="#fff" stroke-dasharray="none" stroke-linecap="butt" stroke-linejoin="miter" stroke-miterlimit="4" stroke-opacity="1" stroke-width="9.474" d="M 327.16347,339.15566 537.69324,549.68542"/><path id="path3926" fill="none" stroke="#fff" stroke-dasharray="none" stroke-linecap="butt" stroke-linejoin="miter" stroke-miterlimit="4" stroke-opacity="1" stroke-width="9.474" d="m 327.16347,-81.903877 0,210.529767"/><path id="path3905" fill="#fff" stroke="#fff" stroke-dasharray="none" stroke-linecap="butt" stroke-linejoin="miter" stroke-miterlimit="4" stroke-opacity="1" stroke-width="32.106" d="m 537.69324,128.62589 0,210.52977 0,210.52976"/><path id="path3901" fill="none" stroke="#fff" stroke-dasharray="none" stroke-linecap="butt" stroke-linejoin="miter" stroke-miterlimit="4" stroke-opacity="1" stroke-width="32.106" d="m 116.6337,128.62589 0,210.52977 0,210.52976"/><path id="path3880" fill="none" stroke="#fff" stroke-dasharray="none" stroke-linecap="butt" stroke-linejoin="miter" stroke-miterlimit="4" stroke-opacity="1" stroke-width="9.474" d="m 116.6337,549.68542 210.52977,0 210.52977,0"/><path id="path3878" fill="none" stroke="#fff" stroke-dasharray="none" stroke-linecap="butt" stroke-linejoin="miter" stroke-miterlimit="4" stroke-opacity="1" stroke-width="9.474" d="m 114.50703,128.62589 210.52977,0 210.52976,0"/><path id="path3868" fill="none" stroke="#fff" stroke-dasharray="none" stroke-linecap="butt" stroke-linejoin="miter" stroke-miterlimit="4" stroke-opacity="1" stroke-width="10.615" d="M 8.8473017,654.10195 118.33892,547.9802"/><path id="path3849" fill="none" stroke="#fff" stroke-dasharray="none" stroke-linecap="butt" stroke-linejoin="miter" stroke-miterlimit="4" stroke-opacity="1" stroke-width="9.474" d="m 327.16347,549.68542 0,210.52977"/><path id="path2987" fill="#e6e6e6" fill-rule="evenodd" stroke="#fff" stroke-dasharray="none" stroke-linecap="butt" stroke-linejoin="miter" stroke-miterlimit="4" stroke-opacity="1" stroke-width="5" d="m 200,332.36218 a 20,20 0 1 1 -40,0 20,20 0 1 1 40,0 z" transform="matrix(1.0526488,0,0,1.0526488,137.68667,-9.2011782)"/><path id="path3757" fill="#fff" fill-rule="evenodd" stroke="#fff" stroke-dasharray="none" stroke-linecap="butt" stroke-linejoin="miter" stroke-miterlimit="4" stroke-opacity="1" stroke-width="5" d="m 200,332.36218 a 20,20 0 1 1 -40,0 20,20 0 1 1 40,0 z" transform="matrix(1.0526488,0,0,1.0526488,348.21644,-9.2011782)"/><path id="path3759" fill="#e6e6e6" fill-rule="evenodd" stroke="#fff" stroke-dasharray="none" stroke-linecap="butt" stroke-linejoin="miter" stroke-miterlimit="4" stroke-opacity="1" stroke-width="5" d="m 200,332.36218 a 20,20 0 1 1 -40,0 20,20 0 1 1 40,0 z" transform="matrix(1.0526488,0,0,1.0526488,-74.346724,-9.2011782)"/><path id="path3761" fill="#fff" fill-rule="evenodd" stroke="#fff" stroke-dasharray="none" stroke-linecap="butt" stroke-linejoin="miter" stroke-miterlimit="4" stroke-opacity="1" stroke-width="5" d="m 200,332.36218 a 20,20 0 1 1 -40,0 20,20 0 1 1 40,0 z" transform="matrix(1.0526488,0,0,1.0526488,-281.86907,-9.2011782)"/><path id="path3763" fill="#fff" fill-rule="evenodd" stroke="#fff" stroke-dasharray="none" stroke-linecap="butt" stroke-linejoin="miter" stroke-miterlimit="4" stroke-opacity="1" stroke-width="5" d="m 200,332.36218 a 20,20 0 1 1 -40,0 20,20 0 1 1 40,0 z" transform="matrix(1.0501635,0,0,1.0527952,560.64471,-9.2495701)"/><path id="path3778" fill="#fff" fill-rule="evenodd" stroke="#fff" stroke-dasharray="none" stroke-linecap="butt" stroke-linejoin="miter" stroke-miterlimit="4" stroke-opacity="1" stroke-width="5" d="m 200,332.36218 a 20,20 0 1 1 -40,0 20,20 0 1 1 40,0 z" transform="matrix(1.0526488,0,0,1.0526488,139.19046,-224.24229)"/><path id="path3780" fill="#fff" fill-rule="evenodd" stroke="#fff" stroke-dasharray="none" stroke-linecap="butt" stroke-linejoin="miter" stroke-miterlimit="4" stroke-opacity="1" stroke-width="5" d="m 200,332.36218 a 20,20 0 1 1 -40,0 20,20 0 1 1 40,0 z" transform="matrix(1.0526488,0,0,1.0526488,351.22401,-222.73851)"/><path id="path3784" fill="#fff" fill-rule="evenodd" stroke="#fff" stroke-dasharray="none" stroke-linecap="butt" stroke-linejoin="miter" stroke-miterlimit="4" stroke-opacity="1" stroke-width="5" d="m 200,332.36218 a 20,20 0 1 1 -40,0 20,20 0 1 1 40,0 z" transform="matrix(1.0526488,0,0,1.0526488,137.68667,201.32858)"/><path id="path3786" fill="#fff" fill-rule="evenodd" stroke="#fff" stroke-dasharray="none" stroke-linecap="butt" stroke-linejoin="miter" stroke-miterlimit="4" stroke-opacity="1" stroke-width="5" d="m 200,332.36218 a 20,20 0 1 1 -40,0 20,20 0 1 1 40,0 z" transform="matrix(1.0526488,0,0,1.0526488,348.216,201.32858)"/><path id="path3788" fill="#e6e6e6" fill-rule="evenodd" stroke="gray" stroke-dasharray="none" stroke-linecap="butt" stroke-linejoin="miter" stroke-miterlimit="4" stroke-opacity="1" stroke-width="5" d="m 200,332.36218 a 20,20 0 1 1 -40,0 20,20 0 1 1 40,0 z" transform="matrix(1.0526488,0,0,1.0526488,-74.346875,201.32858)"/><path id="path3790" fill="#e6e6e6" fill-rule="evenodd" stroke="gray" stroke-dasharray="none" stroke-linecap="butt" stroke-linejoin="miter" stroke-miterlimit="4" stroke-opacity="1" stroke-width="5" d="m 200,332.36218 a 20,20 0 1 1 -40,0 20,20 0 1 1 40,0 z" transform="matrix(1.0526488,0,0,1.0526488,136.18289,410.35457)"/><path id="path3792" fill="#e6e6e6" fill-rule="evenodd" stroke="#fff" stroke-dasharray="none" stroke-linecap="butt" stroke-linejoin="miter" stroke-miterlimit="4" stroke-opacity="1" stroke-width="5" d="m 200,332.36218 a 20,20 0 1 1 -40,0 20,20 0 1 1 40,0 z" transform="matrix(1.0526488,0,0,1.0526488,136.18305,-430.26071)"/><path id="path3794" fill="#fff" fill-rule="evenodd" stroke="#fff" stroke-dasharray="none" stroke-linecap="butt" stroke-linejoin="miter" stroke-miterlimit="4" stroke-opacity="1" stroke-width="5" d="m 200,332.36218 a 20,20 0 1 1 -40,0 20,20 0 1 1 40,0 z" transform="matrix(1.0526488,0,0,1.0526488,-172.0028,-315.52135)"/><path id="path3796" fill="#fff" fill-rule="evenodd" stroke="#fff" stroke-dasharray="none" stroke-linecap="butt" stroke-linejoin="miter" stroke-miterlimit="4" stroke-opacity="1" stroke-width="5" d="m 200,332.36218 a 20,20 0 1 1 -40,0 20,20 0 1 1 40,0 z" transform="matrix(1.0526488,0,0,1.0526488,440.63698,-315.52156)"/><path id="path3798" fill="#fff" fill-rule="evenodd" stroke="#fff" stroke-dasharray="none" stroke-linecap="butt" stroke-linejoin="miter" stroke-miterlimit="4" stroke-opacity="1" stroke-width="5" d="m 200,332.36218 a 20,20 0 1 1 -40,0 20,20 0 1 1 40,0 z" transform="matrix(1.0526488,0,0,1.0526488,-172.00337,297.48129)"/><path id="path3800" fill="#fff" fill-rule="evenodd" stroke="#fff" stroke-dasharray="none" stroke-linecap="butt" stroke-linejoin="miter" stroke-miterlimit="4" stroke-opacity="1" stroke-width="5" d="m 200,332.36218 a 20,20 0 1 1 -40,0 20,20 0 1 1 40,0 z" transform="matrix(1.0526488,0,0,1.0526488,440.63698,297.48129)"/><path id="path3911" fill="#fff" fill-rule="evenodd" stroke="#fff" stroke-dasharray="none" stroke-linecap="butt" stroke-linejoin="miter" stroke-miterlimit="4" stroke-opacity="1" stroke-width="5" d="m 200,332.36218 a 20,20 0 1 1 -40,0 20,20 0 1 1 40,0 z" transform="matrix(1.7698571,0,0,1.7030714,219.11834,-228.55286)"/><path id="path3909" fill="#fff" fill-rule="evenodd" stroke="#fff" stroke-dasharray="none" stroke-linecap="butt" stroke-linejoin="miter" stroke-miterlimit="4" stroke-opacity="1" stroke-width="5" d="m 200,332.36218 a 20,20 0 1 1 -40,0 20,20 0 1 1 40,0 z" transform="matrix(1.7698571,0,0,1.7030714,219.11934,-436.07486)"/><path id="path3782" fill="#fff" fill-rule="evenodd" stroke="#fff" stroke-dasharray="none" stroke-linecap="butt" stroke-linejoin="miter" stroke-miterlimit="4" stroke-opacity="1" stroke-width="5" d="m 200,332.36218 a 20,20 0 1 1 -40,0 20,20 0 1 1 40,0 z" transform="matrix(1.7698569,0,0,1.7030711,-203.44462,-436.07476)"/><path id="path3913" fill="#fff" fill-rule="evenodd" stroke="#fff" stroke-dasharray="none" stroke-linecap="butt" stroke-linejoin="miter" stroke-miterlimit="4" stroke-opacity="1" stroke-width="5" d="m 200,332.36218 a 20,20 0 1 1 -40,0 20,20 0 1 1 40,0 z" transform="matrix(1.7698571,0,0,1.7030714,-203.44466,-16.518864)"/><path id="path3068" fill="#fff" fill-rule="evenodd" stroke="#fff" stroke-dasharray="none" stroke-linecap="butt" stroke-linejoin="miter" stroke-miterlimit="4" stroke-opacity="1" stroke-width="5" d="m 200,332.36218 a 20,20 0 1 1 -40,0 20,20 0 1 1 40,0 z" transform="matrix(1.7698571,0,0,1.7030714,7.0853419,191.00314)"/><path id="path3070" fill="#fff" fill-rule="evenodd" stroke="#fff" stroke-dasharray="none" stroke-linecap="butt" stroke-linejoin="miter" stroke-miterlimit="4" stroke-opacity="1" stroke-width="5" d="m 200,332.36218 a 20,20 0 1 1 -40,0 20,20 0 1 1 40,0 z" transform="matrix(1.7698571,0,0,1.7030714,7.0853419,-645.67286)"/><path id="path3072" fill="#fff" fill-rule="evenodd" stroke="#fff" stroke-dasharray="none" stroke-linecap="butt" stroke-linejoin="miter" stroke-miterlimit="4" stroke-opacity="1" stroke-width="5" d="m 200,332.36218 a 20,20 0 1 1 -40,0 20,20 0 1 1 40,0 z" transform="matrix(1.7698571,0,0,1.7030714,219.11834,-16.518864)"/><path id="path3074" fill="#fff" fill-rule="evenodd" stroke="#fff" stroke-dasharray="none" stroke-linecap="butt" stroke-linejoin="miter" stroke-miterlimit="4" stroke-opacity="1" stroke-width="5" d="m 200,332.36218 a 20,20 0 1 1 -40,0 20,20 0 1 1 40,0 z" transform="matrix(1.7698571,0,0,1.7030714,-203.44466,-228.55286)"/><path id="path3803" fill="#fff" fill-rule="evenodd" stroke="#fff" stroke-dasharray="none" stroke-linecap="butt" stroke-linejoin="miter" stroke-miterlimit="4" stroke-opacity="1" stroke-width="5" d="m 200,332.36218 a 20,20 0 1 1 -40,0 20,20 0 1 1 40,0 z" transform="matrix(1.7698571,0,0,1.7030714,7.0853419,-228.55286)"/><path id="path3927" fill="none" stroke="#fff" stroke-dasharray="none" stroke-linecap="butt" stroke-linejoin="miter" stroke-miterlimit="4" stroke-opacity="1" stroke-width="10.615" d="M 16.651814,29.650359 323.31022,-88.295181 629.96862,29.650359 747.91416,336.30876 629.96862,642.96717"/><path id="path3929" fill="#fff" stroke="#fff" stroke-dasharray="none" stroke-linecap="butt" stroke-linejoin="miter" stroke-miterlimit="4" stroke-opacity="1" stroke-width="10.615" d="M 629.96862,642.96717 323.31022,760.91271"/><path id="path3931" fill="none" stroke="#fff" stroke-dasharray="none" stroke-linecap="butt" stroke-linejoin="miter" stroke-miterlimit="4" stroke-opacity="1" stroke-width="10.615" d="M 323.31022,760.91271 16.651814,642.96717 -101.29373,336.30876 16.651814,29.650359"/></g></g></g></svg>