<svg xmlns="http://www.w3.org/2000/svg" xmlns:svg="http://www.w3.org/2000/svg" id="svg2" width="630.267" height="190.98" version="1.1"><metadata id="metadata7"/><g id="capa1" transform="translate(67.052319,-203.8981)"><flowRoot id="flowRoot3866" fill="#000" fill-opacity="1" stroke="none" font-family="Wingdings" font-size="300" font-stretch="normal" font-style="normal" font-variant="normal" font-weight="normal" letter-spacing="0" transform="translate(79.691507,-325.95823)" word-spacing="0" xml:space="preserve" style="line-height:125%;-inkscape-font-specification:Wingdings"><flowRegion id="flowRegion3868"><rect id="rect3870" width="1264.711" height="412.142" x="-288.904" y="399.104" font-family="Wingdings" font-size="300" font-stretch="normal" font-style="normal" font-variant="normal" font-weight="normal" style="-inkscape-font-specification:Wingdings"/></flowRegion><flowPara id="flowPara3872"><flowSpan id="flowSpan3874" fill="teal" font-family="K1FS" font-stretch="normal" font-style="normal" font-variant="normal" font-weight="normal" letter-spacing="-12.17" style="line-height:162.00000048%;-inkscape-font-specification:K1FS">tiny</flowSpan><flowSpan style="line-height:162.00000048%;-inkscape-font-specification:K1FS" id="flowSpan3057" fill="#000" font-family="K1FS" font-stretch="normal" font-style="normal" font-variant="normal" font-weight="normal" letter-spacing="-12.17">dn</flowSpan><flowSpan id="flowSpan3039" fill="#000" font-family="K1FS" font-stretch="normal" font-style="normal" font-variant="normal" font-weight="normal" letter-spacing="-12.17" style="line-height:162.00000048%;-inkscape-font-specification:K1FS">n</flowSpan></flowPara></flowRoot><path id="path4697" fill="none" stroke="gray" stroke-dasharray="none" stroke-linecap="butt" stroke-linejoin="miter" stroke-miterlimit="0" stroke-opacity="1" stroke-width="14" d="m 170.69993,311.80453 45,0.71428"/><path id="path3123" fill="teal" fill-opacity="1" stroke="none" d="m -53.052319,323.07823 0,-49.2 24,0 0,-12.4 -24,0 0,-22.6 -14,0 0,84.2 c 0,11.39999 6e-6,19.00001 5.6,26 4.399996,5.59999 11.800009,9.2 20.6,9.2 7.199993,0 13.600005,-2.4 19,-5.2 l -6,-11.8 c -4.599995,2.4 -9.200004,3.8 -13,3.8 -4.399996,0 -7.400002,-1.6 -9.4,-4 -2.799997,-3.6 -2.8,-7.20001 -2.8,-18" font-family="Gidolinya" font-size="40" font-style="normal" font-weight="normal" letter-spacing="0" word-spacing="0" style="line-height:125%;-inkscape-font-specification:Gidolinya"/><path id="path3125" fill="teal" fill-opacity="1" stroke="none" d="m -2.7616963,227.27823 c -5.3999946,0 -9.3999997,3.8 -9.3999997,9.4 0,5.59999 4.0000051,9.4 9.3999997,9.4 5.3999943,0 9.4000003,-3.80001 9.4000003,-9.4 0,-5.6 -4.000006,-9.4 -9.4000003,-9.4 m -7,129.8 14.0000003,0 0,-95.6 -14.0000003,0 0,95.6" font-family="Gidolinya" font-size="40" font-style="normal" font-weight="normal" letter-spacing="0" word-spacing="0" style="line-height:125%;-inkscape-font-specification:Gidolinya"/><path id="path3127" fill="teal" fill-opacity="1" stroke="none" d="m 56.482051,260.27823 c -12.199987,0 -20.800004,5.2 -25.6,10.2 -9.39999,9.79999 -9.4,21.40001 -9.4,35.4 l 0,51.2 14,0 0,-51.2 c 0,-12.39999 6e-6,-20.80001 5.8,-26.6 3.399997,-3.4 8.600007,-5.8 15.2,-5.8 6.599994,0 11.800004,2.4 15.2,5.8 5.799995,5.79999 5.8,14.20001 5.8,26.6 l 0,51.2 14,0 0,-51.2 c 0,-13.99999 -1e-5,-25.60001 -9.4,-35.4 -4.799995,-5 -13.400012,-10.2 -25.6,-10.2" font-family="Gidolinya" font-size="40" font-style="normal" font-weight="normal" letter-spacing="0" word-spacing="0" style="line-height:125%;-inkscape-font-specification:Gidolinya"/><path id="path3129" fill="teal" fill-opacity="1" stroke="none" d="m 97.116431,261.47823 20.199999,67.4 c 4.39999,14.39998 5.2,18 8.2,22 2.79999,3.59999 7.4,6.2 13,7 -2.8,12.99999 -4.00001,17.6 -6.8,20.4 -2.2,2.2 -4.80001,3.4 -8.6,3.4 -3,0 -6.00001,-0.6 -9.2,-1.8 l -4.2,12.4 c 4.39999,1.6 9,2.6 13.4,2.6 8.39999,0 15.2,-3.80001 19.4,-8.6 4.39999,-5 6,-11.20001 8.2,-21 l 23,-103.8 -14.4,0 -18,83.4 c -2,-0.2 -4,-0.6 -5.2,-2.4 -1.2,-1.8 -2.60001,-6.20001 -5.6,-16.6 l -18.8,-64.4 -14.599999,0" font-family="Gidolinya" font-size="40" font-style="normal" font-weight="normal" letter-spacing="0" word-spacing="0" style="line-height:125%;-inkscape-font-specification:Gidolinya"/><path id="path3131" fill="#000" fill-opacity="1" stroke="none" d="m 259.51018,260.27823 c -11.79999,0 -21.20001,4.80001 -27,11.8 -8.99999,10.79999 -9,24.00001 -9,37.6 0,12.19999 1e-5,26.20001 11.2,37.6 6.19999,6.19999 15.80001,11 27.8,11 12.59999,0 22.60001,-5.40001 28.2,-13.2 6.79999,-9.39999 6.8,-19.40002 6.8,-34.4 l 0,-86.8 -14,0 0,48.6 c -5.39999,-7.59999 -14.20001,-12.2 -24,-12.2 m 24,53 c 0,10.59999 0,19.2 -4.8,25 -4,4.79999 -10.00001,6.8 -16.2,6.8 -6.79999,0 -13.6,-2.40001 -18,-7.2 -6.99999,-7.59999 -7,-18.00001 -7,-28.2 0,-11.19999 1e-5,-22.20001 6,-29.2 3.6,-4.2 9.40001,-7 17,-7 7.59999,0 13.4,2.8 17,7 5.99999,6.99999 6,18.00001 6,32.8" font-family="Gidolinya" font-size="200" font-stretch="normal" font-style="normal" font-variant="normal" font-weight="normal" letter-spacing="-6.6" word-spacing="0" style="line-height:125%;-inkscape-font-specification:Gidolinya"/><path id="path3133" fill="#000" fill-opacity="1" stroke="none" d="m 348.0508,260.27823 c -12.19999,0 -20.80001,5.2 -25.6,10.2 -9.39999,9.79999 -9.4,21.40001 -9.4,35.4 l 0,51.2 14,0 0,-51.2 c 0,-12.39999 0,-20.80001 5.8,-26.6 3.4,-3.4 8.60001,-5.8 15.2,-5.8 6.59999,0 11.8,2.4 15.2,5.8 5.79999,5.79999 5.8,14.20001 5.8,26.6 l 0,51.2 14,0 0,-51.2 c 0,-13.99999 -10e-6,-25.60001 -9.4,-35.4 -4.8,-5 -13.40001,-10.2 -25.6,-10.2" font-family="Gidolinya" font-size="200" font-stretch="normal" font-style="normal" font-variant="normal" font-weight="normal" letter-spacing="-6.6" word-spacing="0" style="line-height:125%;-inkscape-font-specification:Gidolinya"/><path id="path3135" fill="#000" fill-opacity="1" stroke="none" d="m 433.63829,260.27823 c -12.19999,0 -20.8,5.2 -25.6,10.2 -9.39999,9.79999 -9.4,21.40001 -9.4,35.4 l 0,51.2 14,0 0,-51.2 c 0,-12.39999 1e-5,-20.80001 5.8,-26.6 3.4,-3.4 8.60001,-5.8 15.2,-5.8 6.6,0 11.80001,2.4 15.2,5.8 5.8,5.79999 5.8,14.20001 5.8,26.6 l 0,51.2 14,0 0,-51.2 c 0,-13.99999 -10e-6,-25.60001 -9.4,-35.4 -4.79999,-5 -13.40001,-10.2 -25.6,-10.2" font-family="Gidolinya" font-size="200" font-stretch="normal" font-style="normal" font-variant="normal" font-weight="normal" letter-spacing="-6.6" word-spacing="0" style="line-height:125%;-inkscape-font-specification:Gidolinya"/><path id="path3043-3" fill="teal" fill-rule="evenodd" stroke="none" d="m 1079.9999,549.56696 a 581.42853,608.57141 0 1 1 -1162.857017,0 581.42853,608.57141 0 1 1 1162.857017,0 z" transform="matrix(0.07823882,0,0,0.07474929,478.71647,208.30864)"/><path id="path3044" fill="none" stroke="#fff" stroke-dasharray="none" stroke-linecap="butt" stroke-linejoin="miter" stroke-miterlimit="4" stroke-opacity="1" stroke-width="2.54" d="m 534.28989,266.86518 c 0.83735,8.84789 -5.04922,14.59594 -16.65575,16.65575"/><path id="path3042" fill="none" stroke="#fff" stroke-dasharray="none" stroke-linecap="butt" stroke-linejoin="miter" stroke-miterlimit="4" stroke-opacity="1" stroke-width="2.54" d="m 501.16513,266.86518 c -0.83734,8.84789 5.04923,14.59594 16.65576,16.65575"/><path id="path3040" fill="none" stroke="#fff" stroke-dasharray="none" stroke-linecap="butt" stroke-linejoin="miter" stroke-miterlimit="4" stroke-opacity="1" stroke-width="2.54" d="m 534.29822,232.75419 c 0.83735,-8.84788 -5.04923,-14.59593 -16.65575,-16.65574"/><path id="path3872" fill="#fff" stroke="#fff" stroke-dasharray="none" stroke-linecap="butt" stroke-linejoin="miter" stroke-miterlimit="4" stroke-opacity="1" stroke-width=".75" d="M 551.13239,249.71805 534.47664,233.0623"/><path id="path3870" fill="none" stroke="#fff" stroke-dasharray="none" stroke-linecap="butt" stroke-linejoin="miter" stroke-miterlimit="4" stroke-opacity="1" stroke-width=".75" d="M 484.50938,249.71805 501.16513,233.0623"/><path id="path3812" fill="#fff" stroke="#fff" stroke-dasharray="none" stroke-linecap="butt" stroke-linejoin="miter" stroke-miterlimit="4" stroke-opacity="1" stroke-width=".75" d="m 551.13239,249.71806 -16.65575,0"/><path id="path3810" fill="none" stroke="#fff" stroke-dasharray="none" stroke-linecap="butt" stroke-linejoin="miter" stroke-miterlimit="4" stroke-opacity="1" stroke-width="2.54" d="m 534.47664,249.71806 -16.65575,0"/><path id="path3807" fill="none" stroke="#fff" stroke-dasharray="none" stroke-linecap="butt" stroke-linejoin="miter" stroke-miterlimit="4" stroke-opacity="1" stroke-width="2.54" d="m 517.82089,249.71806 -16.65576,0"/><path id="path3805" fill="#fff" stroke="#fff" stroke-dasharray="none" stroke-linecap="butt" stroke-linejoin="miter" stroke-miterlimit="4" stroke-opacity="1" stroke-width=".75" d="m 484.50938,249.71806 16.65575,0"/><path id="path3031" fill="none" stroke="#fff" stroke-dasharray="none" stroke-linecap="butt" stroke-linejoin="miter" stroke-miterlimit="4" stroke-opacity="1" stroke-width="2.54" d="m 501.16513,232.75419 c -0.83734,-8.84788 5.04923,-14.59593 16.65576,-16.65574"/><path id="path3797" fill="#999" stroke="#fff" stroke-dasharray="none" stroke-linecap="butt" stroke-linejoin="miter" stroke-miterlimit="4" stroke-opacity="1" stroke-width=".75" d="m 484.50938,249.71806 16.65575,16.65575"/><path id="path3801" fill="#fff" stroke="#fff" stroke-dasharray="none" stroke-linecap="butt" stroke-linejoin="miter" stroke-miterlimit="4" stroke-opacity="1" stroke-width=".75" d="m 551.13239,249.71806 -16.65575,16.65575"/><path id="path3813" fill="none" stroke="#fff" stroke-dasharray="none" stroke-linecap="butt" stroke-linejoin="miter" stroke-miterlimit="4" stroke-opacity="1" stroke-width=".75" d="M 517.82089,249.71806 501.16513,233.06231"/><path id="path3819" fill="#fff" stroke="#fff" stroke-dasharray="none" stroke-linecap="butt" stroke-linejoin="miter" stroke-miterlimit="4" stroke-opacity="1" stroke-width=".75" d="m 517.82089,249.71806 16.65575,-16.65575"/><path id="path3039" fill="#fff" stroke="#fff" stroke-dasharray="none" stroke-linecap="butt" stroke-linejoin="miter" stroke-miterlimit="4" stroke-opacity="1" stroke-width=".75" d="m 517.82089,249.71806 0,16.65575"/><path id="path3862" fill="#fff" stroke="#fff" stroke-dasharray="none" stroke-linecap="butt" stroke-linejoin="miter" stroke-miterlimit="4" stroke-opacity="1" stroke-width=".75" d="m 517.82089,233.06231 0,16.65575"/><path id="path3822" fill="#fff" stroke="#fff" stroke-dasharray="none" stroke-linecap="butt" stroke-linejoin="miter" stroke-miterlimit="4" stroke-opacity="1" stroke-width=".84" d="m 534.33821,233.20074 8.40271,-8.40271"/><path id="path3817" fill="#000" stroke="#fff" stroke-dasharray="none" stroke-linecap="butt" stroke-linejoin="miter" stroke-miterlimit="4" stroke-opacity="1" stroke-width=".84" d="m 501.32841,233.22558 -7.5193,-7.51929"/><path id="path3815" fill="none" stroke="#fff" stroke-dasharray="none" stroke-linecap="butt" stroke-linejoin="miter" stroke-miterlimit="4" stroke-opacity="1" stroke-width=".75" d="m 501.16513,266.37381 16.65576,-16.65575"/><path id="path3811" fill="none" stroke="#fff" stroke-dasharray="none" stroke-linecap="butt" stroke-linejoin="miter" stroke-miterlimit="4" stroke-opacity="1" stroke-width=".84" d="m 534.33466,266.23184 8.27651,8.2765"/><path id="path3809" fill="#fff" stroke="#fff" stroke-dasharray="none" stroke-linecap="butt" stroke-linejoin="miter" stroke-miterlimit="4" stroke-opacity="1" stroke-width=".75" d="m 517.82089,249.71806 16.65575,16.65575"/><path id="path3926" fill="none" stroke="#fff" stroke-dasharray="none" stroke-linecap="butt" stroke-linejoin="miter" stroke-miterlimit="4" stroke-opacity="1" stroke-width=".75" d="m 517.82089,216.40656 0,16.65575"/><path id="path3905" fill="#fff" stroke="#fff" stroke-dasharray="none" stroke-linecap="butt" stroke-linejoin="miter" stroke-miterlimit="4" stroke-opacity="1" stroke-width="2.54" d="m 534.47664,233.06231 0,16.65575 0,16.65575"/><path id="path3901" fill="none" stroke="#fff" stroke-dasharray="none" stroke-linecap="butt" stroke-linejoin="miter" stroke-miterlimit="4" stroke-opacity="1" stroke-width="2.54" d="m 501.16513,233.06231 0,16.65575 0,16.65575"/><path id="path3880" fill="none" stroke="#fff" stroke-dasharray="none" stroke-linecap="butt" stroke-linejoin="miter" stroke-miterlimit="4" stroke-opacity="1" stroke-width=".75" d="m 501.16513,266.37381 16.65576,0 16.65575,0"/><path id="path3878" fill="none" stroke="#fff" stroke-dasharray="none" stroke-linecap="butt" stroke-linejoin="miter" stroke-miterlimit="4" stroke-opacity="1" stroke-width=".75" d="m 500.99689,233.06231 16.65575,0 16.65575,0"/><path id="path3868" fill="none" stroke="#fff" stroke-dasharray="none" stroke-linecap="butt" stroke-linejoin="miter" stroke-miterlimit="4" stroke-opacity="1" stroke-width=".84" d="m 492.63777,274.63457 8.66227,-8.39566"/><path id="path3849" fill="none" stroke="#fff" stroke-dasharray="none" stroke-linecap="butt" stroke-linejoin="miter" stroke-miterlimit="4" stroke-opacity="1" stroke-width=".75" d="m 517.82089,266.37381 0,16.65576"/><path id="path2987" fill="#e6e6e6" fill-rule="evenodd" stroke="#fff" stroke-dasharray="none" stroke-linecap="butt" stroke-linejoin="miter" stroke-miterlimit="4" stroke-opacity="1" stroke-width="5" d="m 200,332.36218 a 20,20 0 1 1 -40,0 20,20 0 1 1 40,0 z" transform="matrix(0.08327876,0,0,0.08327876,502.83071,222.15832)"/><path id="path3757" fill="#fff" fill-rule="evenodd" stroke="#fff" stroke-dasharray="none" stroke-linecap="butt" stroke-linejoin="miter" stroke-miterlimit="4" stroke-opacity="1" stroke-width="5" d="m 200,332.36218 a 20,20 0 1 1 -40,0 20,20 0 1 1 40,0 z" transform="matrix(0.08327876,0,0,0.08327876,519.48646,222.15832)"/><path id="path3759" fill="#e6e6e6" fill-rule="evenodd" stroke="#fff" stroke-dasharray="none" stroke-linecap="butt" stroke-linejoin="miter" stroke-miterlimit="4" stroke-opacity="1" stroke-width="5" d="m 200,332.36218 a 20,20 0 1 1 -40,0 20,20 0 1 1 40,0 z" transform="matrix(0.08327876,0,0,0.08327876,486.056,222.15832)"/><path id="path3761" fill="#fff" fill-rule="evenodd" stroke="#fff" stroke-dasharray="none" stroke-linecap="butt" stroke-linejoin="miter" stroke-miterlimit="4" stroke-opacity="1" stroke-width="5" d="m 200,332.36218 a 20,20 0 1 1 -40,0 20,20 0 1 1 40,0 z" transform="matrix(0.08327876,0,0,0.08327876,469.63817,222.15832)"/><path id="path3763" fill="#fff" fill-rule="evenodd" stroke="#fff" stroke-dasharray="none" stroke-linecap="butt" stroke-linejoin="miter" stroke-miterlimit="4" stroke-opacity="1" stroke-width="5" d="m 200,332.36218 a 20,20 0 1 1 -40,0 20,20 0 1 1 40,0 z" transform="matrix(0.08308214,0,0,0.08329034,536.29241,222.15449)"/><path id="path3778" fill="#fff" fill-rule="evenodd" stroke="#fff" stroke-dasharray="none" stroke-linecap="butt" stroke-linejoin="miter" stroke-miterlimit="4" stroke-opacity="1" stroke-width="5" d="m 200,332.36218 a 20,20 0 1 1 -40,0 20,20 0 1 1 40,0 z" transform="matrix(0.08327876,0,0,0.08327876,502.94968,205.14566)"/><path id="path3780" fill="#fff" fill-rule="evenodd" stroke="#fff" stroke-dasharray="none" stroke-linecap="butt" stroke-linejoin="miter" stroke-miterlimit="4" stroke-opacity="1" stroke-width="5" d="m 200,332.36218 a 20,20 0 1 1 -40,0 20,20 0 1 1 40,0 z" transform="matrix(0.08327876,0,0,0.08327876,519.7244,205.26463)"/><path id="path3784" fill="#fff" fill-rule="evenodd" stroke="#fff" stroke-dasharray="none" stroke-linecap="butt" stroke-linejoin="miter" stroke-miterlimit="4" stroke-opacity="1" stroke-width="5" d="m 200,332.36218 a 20,20 0 1 1 -40,0 20,20 0 1 1 40,0 z" transform="matrix(0.08327876,0,0,0.08327876,502.83071,238.81407)"/><path id="path3786" fill="#fff" fill-rule="evenodd" stroke="#fff" stroke-dasharray="none" stroke-linecap="butt" stroke-linejoin="miter" stroke-miterlimit="4" stroke-opacity="1" stroke-width="5" d="m 200,332.36218 a 20,20 0 1 1 -40,0 20,20 0 1 1 40,0 z" transform="matrix(0.08327876,0,0,0.08327876,519.48643,238.81407)"/><path id="path3788" fill="#e6e6e6" fill-rule="evenodd" stroke="gray" stroke-dasharray="none" stroke-linecap="butt" stroke-linejoin="miter" stroke-miterlimit="4" stroke-opacity="1" stroke-width="5" d="m 200,332.36218 a 20,20 0 1 1 -40,0 20,20 0 1 1 40,0 z" transform="matrix(0.08327876,0,0,0.08327876,486.05599,238.81407)"/><path id="path3790" fill="#e6e6e6" fill-rule="evenodd" stroke="gray" stroke-dasharray="none" stroke-linecap="butt" stroke-linejoin="miter" stroke-miterlimit="4" stroke-opacity="1" stroke-width="5" d="m 200,332.36218 a 20,20 0 1 1 -40,0 20,20 0 1 1 40,0 z" transform="matrix(0.08327876,0,0,0.08327876,502.71174,255.35086)"/><path id="path3792" fill="#e6e6e6" fill-rule="evenodd" stroke="#fff" stroke-dasharray="none" stroke-linecap="butt" stroke-linejoin="miter" stroke-miterlimit="4" stroke-opacity="1" stroke-width="5" d="m 200,332.36218 a 20,20 0 1 1 -40,0 20,20 0 1 1 40,0 z" transform="matrix(0.08327876,0,0,0.08327876,502.71175,188.84682)"/><path id="path3794" fill="#fff" fill-rule="evenodd" stroke="#fff" stroke-dasharray="none" stroke-linecap="butt" stroke-linejoin="miter" stroke-miterlimit="4" stroke-opacity="1" stroke-width="5" d="m 200,332.36218 a 20,20 0 1 1 -40,0 20,20 0 1 1 40,0 z" transform="matrix(0.08327876,0,0,0.08327876,478.33008,197.92425)"/><path id="path3796" fill="#fff" fill-rule="evenodd" stroke="#fff" stroke-dasharray="none" stroke-linecap="butt" stroke-linejoin="miter" stroke-miterlimit="4" stroke-opacity="1" stroke-width="5" d="m 200,332.36218 a 20,20 0 1 1 -40,0 20,20 0 1 1 40,0 z" transform="matrix(0.08327876,0,0,0.08327876,526.79818,197.92424)"/><path id="path3798" fill="#fff" fill-rule="evenodd" stroke="#fff" stroke-dasharray="none" stroke-linecap="butt" stroke-linejoin="miter" stroke-miterlimit="4" stroke-opacity="1" stroke-width="5" d="m 200,332.36218 a 20,20 0 1 1 -40,0 20,20 0 1 1 40,0 z" transform="matrix(0.08327876,0,0,0.08327876,478.33004,246.42105)"/><path id="path3800" fill="#fff" fill-rule="evenodd" stroke="#fff" stroke-dasharray="none" stroke-linecap="butt" stroke-linejoin="miter" stroke-miterlimit="4" stroke-opacity="1" stroke-width="5" d="m 200,332.36218 a 20,20 0 1 1 -40,0 20,20 0 1 1 40,0 z" transform="matrix(0.08327876,0,0,0.08327876,526.79818,246.42105)"/><path id="path3911" fill="#fff" fill-rule="evenodd" stroke="#fff" stroke-dasharray="none" stroke-linecap="butt" stroke-linejoin="miter" stroke-miterlimit="4" stroke-opacity="1" stroke-width="5" d="m 200,332.36218 a 20,20 0 1 1 -40,0 20,20 0 1 1 40,0 z" transform="matrix(0.14001964,0,0,0.13473599,509.27306,204.80464)"/><path id="path3909" fill="#fff" fill-rule="evenodd" stroke="#fff" stroke-dasharray="none" stroke-linecap="butt" stroke-linejoin="miter" stroke-miterlimit="4" stroke-opacity="1" stroke-width="5" d="m 200,332.36218 a 20,20 0 1 1 -40,0 20,20 0 1 1 40,0 z" transform="matrix(0.14001964,0,0,0.13473599,509.27313,188.38684)"/><path id="path3782" fill="#fff" fill-rule="evenodd" stroke="#fff" stroke-dasharray="none" stroke-linecap="butt" stroke-linejoin="miter" stroke-miterlimit="4" stroke-opacity="1" stroke-width="5" d="m 200,332.36218 a 20,20 0 1 1 -40,0 20,20 0 1 1 40,0 z" transform="matrix(0.14001963,0,0,0.13473597,475.84261,188.38685)"/><path id="path3913" fill="#fff" fill-rule="evenodd" stroke="#fff" stroke-dasharray="none" stroke-linecap="butt" stroke-linejoin="miter" stroke-miterlimit="4" stroke-opacity="1" stroke-width="5" d="m 200,332.36218 a 20,20 0 1 1 -40,0 20,20 0 1 1 40,0 z" transform="matrix(0.14001964,0,0,0.13473599,475.8426,221.57939)"/><path id="path3068" fill="#fff" fill-rule="evenodd" stroke="#fff" stroke-dasharray="none" stroke-linecap="butt" stroke-linejoin="miter" stroke-miterlimit="4" stroke-opacity="1" stroke-width="5" d="m 200,332.36218 a 20,20 0 1 1 -40,0 20,20 0 1 1 40,0 z" transform="matrix(0.14001964,0,0,0.13473599,492.49838,237.99719)"/><path id="path3070" fill="#fff" fill-rule="evenodd" stroke="#fff" stroke-dasharray="none" stroke-linecap="butt" stroke-linejoin="miter" stroke-miterlimit="4" stroke-opacity="1" stroke-width="5" d="m 200,332.36218 a 20,20 0 1 1 -40,0 20,20 0 1 1 40,0 z" transform="matrix(0.14001964,0,0,0.13473599,492.49838,171.8048)"/><path id="path3072" fill="#fff" fill-rule="evenodd" stroke="#fff" stroke-dasharray="none" stroke-linecap="butt" stroke-linejoin="miter" stroke-miterlimit="4" stroke-opacity="1" stroke-width="5" d="m 200,332.36218 a 20,20 0 1 1 -40,0 20,20 0 1 1 40,0 z" transform="matrix(0.14001964,0,0,0.13473599,509.27306,221.57939)"/><path id="path3074" fill="#fff" fill-rule="evenodd" stroke="#fff" stroke-dasharray="none" stroke-linecap="butt" stroke-linejoin="miter" stroke-miterlimit="4" stroke-opacity="1" stroke-width="5" d="m 200,332.36218 a 20,20 0 1 1 -40,0 20,20 0 1 1 40,0 z" transform="matrix(0.14001964,0,0,0.13473599,475.8426,204.80464)"/><path id="path3803" fill="#fff" fill-rule="evenodd" stroke="#fff" stroke-dasharray="none" stroke-linecap="butt" stroke-linejoin="miter" stroke-miterlimit="4" stroke-opacity="1" stroke-width="5" d="m 200,332.36218 a 20,20 0 1 1 -40,0 20,20 0 1 1 40,0 z" transform="matrix(0.14001964,0,0,0.13473599,492.49838,204.80464)"/><path id="path3927-6" fill="none" stroke="#fff" stroke-dasharray="none" stroke-linecap="butt" stroke-linejoin="miter" stroke-miterlimit="4" stroke-opacity="1" stroke-width=".84" d="m 493.25521,225.232 24.26083,-9.33108 24.26083,9.33108 9.33109,24.26083 -9.33109,24.26083"/><path id="path3929-7" fill="#fff" stroke="#fff" stroke-dasharray="none" stroke-linecap="butt" stroke-linejoin="miter" stroke-miterlimit="4" stroke-opacity="1" stroke-width=".84" d="m 541.77687,273.75366 -24.26083,9.33109"/><path id="path3931-5" fill="none" stroke="#fff" stroke-dasharray="none" stroke-linecap="butt" stroke-linejoin="miter" stroke-miterlimit="4" stroke-opacity="1" stroke-width=".84" d="m 517.51604,283.08475 -24.26083,-9.33109 -9.33108,-24.26083 9.33108,-24.26083"/></g></svg>