<svg xmlns="http://www.w3.org/2000/svg" xmlns:svg="http://www.w3.org/2000/svg" id="svg2" width="630.267" height="190.98" version="1.1"><metadata id="metadata7"/><g id="capa1" transform="translate(67.052319,-203.8981)"><g id="g4007"><flowRoot id="flowRoot3866" fill="#000" fill-opacity="1" stroke="none" font-family="Wingdings" font-size="300" font-stretch="normal" font-style="normal" font-variant="normal" font-weight="normal" letter-spacing="0" transform="translate(79.691507,-325.95823)" word-spacing="0" xml:space="preserve" style="line-height:125%;-inkscape-font-specification:Wingdings"><flowRegion id="flowRegion3868"><rect font-size="300" style="-inkscape-font-specification:Wingdings" id="rect3870" width="1264.711" height="412.142" x="-288.904" y="399.104" font-family="Wingdings" font-stretch="normal" font-style="normal" font-variant="normal" font-weight="normal"/></flowRegion><flowPara id="flowPara3872"><flowSpan style="line-height:162.00000048%;-inkscape-font-specification:K1FS" id="flowSpan3874" fill="teal" font-family="K1FS" font-stretch="normal" font-style="normal" font-variant="normal" font-weight="normal" letter-spacing="-12.17">tiny</flowSpan><flowSpan id="flowSpan3057" fill="#000" font-family="K1FS" font-stretch="normal" font-style="normal" font-variant="normal" font-weight="normal" letter-spacing="-12.17" style="line-height:162.00000048%;-inkscape-font-specification:K1FS">dn</flowSpan><flowSpan style="line-height:162.00000048%;-inkscape-font-specification:K1FS" id="flowSpan3039" fill="#000" font-family="K1FS" font-stretch="normal" font-style="normal" font-variant="normal" font-weight="normal" letter-spacing="-12.17">n</flowSpan></flowPara></flowRoot><path id="path4697" fill="#000" stroke="#000" stroke-dasharray="none" stroke-linecap="butt" stroke-linejoin="miter" stroke-miterlimit="0" stroke-opacity="1" stroke-width="14" d="m 170.69993,311.80453 45,0.71428"/><path id="path3793" fill="#000" fill-opacity="1" stroke="none" d="m -53.052319,323.07823 0,-49.2 24,0 0,-12.4 -24,0 0,-22.6 -14,0 0,84.2 c 0,11.39999 6e-6,19.00001 5.6,26 4.399996,5.59999 11.800009,9.2 20.6,9.2 7.199993,0 13.600005,-2.4 19,-5.2 l -6,-11.8 c -4.599995,2.4 -9.200004,3.8 -13,3.8 -4.399996,0 -7.400002,-1.6 -9.4,-4 -2.799997,-3.6 -2.8,-7.20001 -2.8,-18" font-family="Sans" font-size="40" font-style="normal" font-weight="normal" letter-spacing="0" word-spacing="0" style="line-height:125%"/><path id="path3795" fill="#000" fill-opacity="1" stroke="none" d="m -2.7616963,227.27823 c -5.3999946,0 -9.3999997,3.8 -9.3999997,9.4 0,5.59999 4.0000051,9.4 9.3999997,9.4 5.3999943,0 9.4000003,-3.80001 9.4000003,-9.4 0,-5.6 -4.000006,-9.4 -9.4000003,-9.4 m -7,129.8 14.0000003,0 0,-95.6 -14.0000003,0 0,95.6" font-family="Sans" font-size="40" font-style="normal" font-weight="normal" letter-spacing="0" word-spacing="0" style="line-height:125%"/><path id="path3799" fill="#000" fill-opacity="1" stroke="none" d="m 56.482051,260.27823 c -12.199987,0 -20.800004,5.2 -25.6,10.2 -9.39999,9.79999 -9.4,21.40001 -9.4,35.4 l 0,51.2 14,0 0,-51.2 c 0,-12.39999 6e-6,-20.80001 5.8,-26.6 3.399997,-3.4 8.600007,-5.8 15.2,-5.8 6.599994,0 11.800004,2.4 15.2,5.8 5.799995,5.79999 5.8,14.20001 5.8,26.6 l 0,51.2 14,0 0,-51.2 c 0,-13.99999 -1e-5,-25.60001 -9.4,-35.4 -4.799995,-5 -13.400012,-10.2 -25.6,-10.2" font-family="Sans" font-size="40" font-style="normal" font-weight="normal" letter-spacing="0" word-spacing="0" style="line-height:125%"/><path id="path3802" fill="#000" fill-opacity="1" stroke="none" d="m 97.116431,261.47823 20.199999,67.4 c 4.39999,14.39998 5.2,18 8.2,22 2.79999,3.59999 7.4,6.2 13,7 -2.8,12.99999 -4.00001,17.6 -6.8,20.4 -2.2,2.2 -4.80001,3.4 -8.6,3.4 -3,0 -6.00001,-0.6 -9.2,-1.8 l -4.2,12.4 c 4.39999,1.6 9,2.6 13.4,2.6 8.39999,0 15.2,-3.80001 19.4,-8.6 4.39999,-5 6,-11.20001 8.2,-21 l 23,-103.8 -14.4,0 -18,83.4 c -2,-0.2 -4,-0.6 -5.2,-2.4 -1.2,-1.8 -2.60001,-6.20001 -5.6,-16.6 l -18.8,-64.4 -14.599999,0" font-family="Sans" font-size="40" font-style="normal" font-weight="normal" letter-spacing="0" word-spacing="0" style="line-height:125%"/><path id="path3804" fill="#000" fill-opacity="1" stroke="none" d="m 259.51018,260.27823 c -11.79999,0 -21.20001,4.80001 -27,11.8 -8.99999,10.79999 -9,24.00001 -9,37.6 0,12.19999 1e-5,26.20001 11.2,37.6 6.19999,6.19999 15.80001,11 27.8,11 12.59999,0 22.60001,-5.40001 28.2,-13.2 6.79999,-9.39999 6.8,-19.40002 6.8,-34.4 l 0,-86.8 -14,0 0,48.6 c -5.39999,-7.59999 -14.20001,-12.2 -24,-12.2 m 24,53 c 0,10.59999 0,19.2 -4.8,25 -4,4.79999 -10.00001,6.8 -16.2,6.8 -6.79999,0 -13.6,-2.40001 -18,-7.2 -6.99999,-7.59999 -7,-18.00001 -7,-28.2 0,-11.19999 1e-5,-22.20001 6,-29.2 3.6,-4.2 9.40001,-7 17,-7 7.59999,0 13.4,2.8 17,7 5.99999,6.99999 6,18.00001 6,32.8" font-family="Gidolinya" font-size="200" font-stretch="normal" font-style="normal" font-variant="normal" font-weight="normal" letter-spacing="-6.6" word-spacing="0" style="line-height:125%;-inkscape-font-specification:Gidolinya"/><path id="path3806" fill="#000" fill-opacity="1" stroke="none" d="m 348.0508,260.27823 c -12.19999,0 -20.80001,5.2 -25.6,10.2 -9.39999,9.79999 -9.4,21.40001 -9.4,35.4 l 0,51.2 14,0 0,-51.2 c 0,-12.39999 0,-20.80001 5.8,-26.6 3.4,-3.4 8.60001,-5.8 15.2,-5.8 6.59999,0 11.8,2.4 15.2,5.8 5.79999,5.79999 5.8,14.20001 5.8,26.6 l 0,51.2 14,0 0,-51.2 c 0,-13.99999 -10e-6,-25.60001 -9.4,-35.4 -4.8,-5 -13.40001,-10.2 -25.6,-10.2" font-family="Gidolinya" font-size="200" font-stretch="normal" font-style="normal" font-variant="normal" font-weight="normal" letter-spacing="-6.6" word-spacing="0" style="line-height:125%;-inkscape-font-specification:Gidolinya"/><path id="path3808" fill="#000" fill-opacity="1" stroke="none" d="m 433.63829,260.27823 c -12.19999,0 -20.8,5.2 -25.6,10.2 -9.39999,9.79999 -9.4,21.40001 -9.4,35.4 l 0,51.2 14,0 0,-51.2 c 0,-12.39999 1e-5,-20.80001 5.8,-26.6 3.4,-3.4 8.60001,-5.8 15.2,-5.8 6.6,0 11.80001,2.4 15.2,5.8 5.8,5.79999 5.8,14.20001 5.8,26.6 l 0,51.2 14,0 0,-51.2 c 0,-13.99999 -10e-6,-25.60001 -9.4,-35.4 -4.79999,-5 -13.40001,-10.2 -25.6,-10.2" font-family="Gidolinya" font-size="200" font-stretch="normal" font-style="normal" font-variant="normal" font-weight="normal" letter-spacing="-6.6" word-spacing="0" style="line-height:125%;-inkscape-font-specification:Gidolinya"/><g id="g3498"><path id="path3043-3" fill="#000" fill-rule="evenodd" stroke="none" d="m 1079.9999,549.56696 a 581.42853,608.57141 0 1 1 -1162.857017,0 581.42853,608.57141 0 1 1 1162.857017,0 z" transform="matrix(0.07823882,0,0,0.07474929,478.71647,208.30864)"/><g id="g4003" transform="matrix(0.07911353,0,0,0.07911353,491.93783,222.88626)"><path id="path3044" fill="none" stroke="#fff" stroke-dasharray="none" stroke-linecap="butt" stroke-linejoin="miter" stroke-miterlimit="4" stroke-opacity="1" stroke-width="32.106" d="M 535.33275,555.89637 C 545.91688,667.73421 471.5102,740.38986 324.80298,766.42604"/><path id="path3042" fill="none" stroke="#fff" stroke-dasharray="none" stroke-linecap="butt" stroke-linejoin="miter" stroke-miterlimit="4" stroke-opacity="1" stroke-width="32.106" d="m 116.6337,555.89637 c -10.58412,111.83784 63.82254,184.49349 210.52977,210.52967"/><path id="path3040" fill="none" stroke="#fff" stroke-dasharray="none" stroke-linecap="butt" stroke-linejoin="miter" stroke-miterlimit="4" stroke-opacity="1" stroke-width="32.106" d="M 535.438,124.73131 C 546.02214,12.893477 471.61547,-59.762188 324.90825,-85.798359"/><path id="path3872" fill="#fff" stroke="#fff" stroke-dasharray="none" stroke-linecap="butt" stroke-linejoin="miter" stroke-miterlimit="4" stroke-opacity="1" stroke-width="9.474" d="M 748.223,339.15557 537.69324,128.62581"/><path id="path3870" fill="none" stroke="#fff" stroke-dasharray="none" stroke-linecap="butt" stroke-linejoin="miter" stroke-miterlimit="4" stroke-opacity="1" stroke-width="9.474" d="M -93.896065,339.15557 116.6337,128.62581"/><path id="path3812" fill="#fff" stroke="#fff" stroke-dasharray="none" stroke-linecap="butt" stroke-linejoin="miter" stroke-miterlimit="4" stroke-opacity="1" stroke-width="9.474" d="m 748.223,339.15559 -210.52976,0"/><path id="path3810" fill="none" stroke="#fff" stroke-dasharray="none" stroke-linecap="butt" stroke-linejoin="miter" stroke-miterlimit="4" stroke-opacity="1" stroke-width="32.106" d="m 537.69324,339.15559 -210.52977,0"/><path id="path3807" fill="none" stroke="#fff" stroke-dasharray="none" stroke-linecap="butt" stroke-linejoin="miter" stroke-miterlimit="4" stroke-opacity="1" stroke-width="32.106" d="m 327.16347,339.15559 -210.52977,0"/><path id="path3805" fill="#fff" stroke="#fff" stroke-dasharray="none" stroke-linecap="butt" stroke-linejoin="miter" stroke-miterlimit="4" stroke-opacity="1" stroke-width="9.474" d="m -93.896065,339.15559 210.529765,0"/><path id="path3031" fill="none" stroke="#fff" stroke-dasharray="none" stroke-linecap="butt" stroke-linejoin="miter" stroke-miterlimit="4" stroke-opacity="1" stroke-width="32.106" d="M 116.6337,124.73131 C 106.04958,12.893502 180.45624,-59.762163 327.16347,-85.798333"/><path id="path3797" fill="#999" stroke="#fff" stroke-dasharray="none" stroke-linecap="butt" stroke-linejoin="miter" stroke-miterlimit="4" stroke-opacity="1" stroke-width="9.474" d="M -93.896065,339.15559 116.6337,549.68536"/><path id="path3801" fill="#fff" stroke="#fff" stroke-dasharray="none" stroke-linecap="butt" stroke-linejoin="miter" stroke-miterlimit="4" stroke-opacity="1" stroke-width="9.474" d="M 748.223,339.15559 537.69324,549.68536"/><path id="path3813" fill="none" stroke="#fff" stroke-dasharray="none" stroke-linecap="butt" stroke-linejoin="miter" stroke-miterlimit="4" stroke-opacity="1" stroke-width="9.474" d="M 327.16347,339.15566 116.6337,128.62589"/><path id="path3819" fill="#fff" stroke="#fff" stroke-dasharray="none" stroke-linecap="butt" stroke-linejoin="miter" stroke-miterlimit="4" stroke-opacity="1" stroke-width="9.474" d="M 327.16347,339.15566 537.69324,128.62589"/><path id="path3039" fill="#fff" stroke="#fff" stroke-dasharray="none" stroke-linecap="butt" stroke-linejoin="miter" stroke-miterlimit="4" stroke-opacity="1" stroke-width="9.474" d="m 327.16347,339.15566 0,210.52976"/><path id="path3862" fill="#fff" stroke="#fff" stroke-dasharray="none" stroke-linecap="butt" stroke-linejoin="miter" stroke-miterlimit="4" stroke-opacity="1" stroke-width="9.474" d="m 327.16347,128.62589 0,210.52977"/><path id="path3822" fill="#fff" stroke="#fff" stroke-dasharray="none" stroke-linecap="butt" stroke-linejoin="miter" stroke-miterlimit="4" stroke-opacity="1" stroke-width="10.615" d="M 535.9435,130.37564 642.15428,24.16485"/><path id="path3817" fill="#000" stroke="#fff" stroke-dasharray="none" stroke-linecap="butt" stroke-linejoin="miter" stroke-miterlimit="4" stroke-opacity="1" stroke-width="10.615" d="M 118.6975,130.68969 23.653158,35.645346"/><path id="path3815" fill="none" stroke="#fff" stroke-dasharray="none" stroke-linecap="butt" stroke-linejoin="miter" stroke-miterlimit="4" stroke-opacity="1" stroke-width="9.474" d="M 116.6337,549.68542 327.16347,339.15566"/><path id="path3811" fill="none" stroke="#fff" stroke-dasharray="none" stroke-linecap="butt" stroke-linejoin="miter" stroke-miterlimit="4" stroke-opacity="1" stroke-width="10.615" d="M 535.89863,547.89081 640.51421,652.50639"/><path id="path3809" fill="#fff" stroke="#fff" stroke-dasharray="none" stroke-linecap="butt" stroke-linejoin="miter" stroke-miterlimit="4" stroke-opacity="1" stroke-width="9.474" d="M 327.16347,339.15566 537.69324,549.68542"/><path id="path3926" fill="none" stroke="#fff" stroke-dasharray="none" stroke-linecap="butt" stroke-linejoin="miter" stroke-miterlimit="4" stroke-opacity="1" stroke-width="9.474" d="m 327.16347,-81.903877 0,210.529767"/><path id="path3905" fill="#fff" stroke="#fff" stroke-dasharray="none" stroke-linecap="butt" stroke-linejoin="miter" stroke-miterlimit="4" stroke-opacity="1" stroke-width="32.106" d="m 537.69324,128.62589 0,210.52977 0,210.52976"/><path id="path3901" fill="none" stroke="#fff" stroke-dasharray="none" stroke-linecap="butt" stroke-linejoin="miter" stroke-miterlimit="4" stroke-opacity="1" stroke-width="32.106" d="m 116.6337,128.62589 0,210.52977 0,210.52976"/><path id="path3880" fill="none" stroke="#fff" stroke-dasharray="none" stroke-linecap="butt" stroke-linejoin="miter" stroke-miterlimit="4" stroke-opacity="1" stroke-width="9.474" d="m 116.6337,549.68542 210.52977,0 210.52977,0"/><path id="path3878" fill="none" stroke="#fff" stroke-dasharray="none" stroke-linecap="butt" stroke-linejoin="miter" stroke-miterlimit="4" stroke-opacity="1" stroke-width="9.474" d="m 114.50703,128.62589 210.52977,0 210.52976,0"/><path id="path3868" fill="none" stroke="#fff" stroke-dasharray="none" stroke-linecap="butt" stroke-linejoin="miter" stroke-miterlimit="4" stroke-opacity="1" stroke-width="10.615" d="M 8.8473017,654.10195 118.33892,547.9802"/><path id="path3849" fill="none" stroke="#fff" stroke-dasharray="none" stroke-linecap="butt" stroke-linejoin="miter" stroke-miterlimit="4" stroke-opacity="1" stroke-width="9.474" d="m 327.16347,549.68542 0,210.52977"/><path id="path2987" fill="#e6e6e6" fill-rule="evenodd" stroke="#fff" stroke-dasharray="none" stroke-linecap="butt" stroke-linejoin="miter" stroke-miterlimit="4" stroke-opacity="1" stroke-width="5" d="m 200,332.36218 c 0,11.0457 -8.95431,20 -20,20 -11.04569,0 -20,-8.9543 -20,-20 0,-11.04569 8.95431,-20 20,-20 11.04569,0 20,8.95431 20,20 z" transform="matrix(1.0526488,0,0,1.0526488,137.68667,-9.2011782)"/><path id="path3757" fill="#fff" fill-rule="evenodd" stroke="#fff" stroke-dasharray="none" stroke-linecap="butt" stroke-linejoin="miter" stroke-miterlimit="4" stroke-opacity="1" stroke-width="5" d="m 200,332.36218 c 0,11.0457 -8.95431,20 -20,20 -11.04569,0 -20,-8.9543 -20,-20 0,-11.04569 8.95431,-20 20,-20 11.04569,0 20,8.95431 20,20 z" transform="matrix(1.0526488,0,0,1.0526488,348.21644,-9.2011782)"/><path id="path3759" fill="#e6e6e6" fill-rule="evenodd" stroke="#fff" stroke-dasharray="none" stroke-linecap="butt" stroke-linejoin="miter" stroke-miterlimit="4" stroke-opacity="1" stroke-width="5" d="m 200,332.36218 c 0,11.0457 -8.95431,20 -20,20 -11.04569,0 -20,-8.9543 -20,-20 0,-11.04569 8.95431,-20 20,-20 11.04569,0 20,8.95431 20,20 z" transform="matrix(1.0526488,0,0,1.0526488,-74.346724,-9.2011782)"/><path id="path3761" fill="#fff" fill-rule="evenodd" stroke="#fff" stroke-dasharray="none" stroke-linecap="butt" stroke-linejoin="miter" stroke-miterlimit="4" stroke-opacity="1" stroke-width="5" d="m 200,332.36218 c 0,11.0457 -8.95431,20 -20,20 -11.04569,0 -20,-8.9543 -20,-20 0,-11.04569 8.95431,-20 20,-20 11.04569,0 20,8.95431 20,20 z" transform="matrix(1.0526488,0,0,1.0526488,-281.86907,-9.2011782)"/><path id="path3763" fill="#fff" fill-rule="evenodd" stroke="#fff" stroke-dasharray="none" stroke-linecap="butt" stroke-linejoin="miter" stroke-miterlimit="4" stroke-opacity="1" stroke-width="5" d="m 200,332.36218 c 0,11.0457 -8.95431,20 -20,20 -11.04569,0 -20,-8.9543 -20,-20 0,-11.04569 8.95431,-20 20,-20 11.04569,0 20,8.95431 20,20 z" transform="matrix(1.0501635,0,0,1.0527952,560.64471,-9.2495701)"/><path id="path3778" fill="#fff" fill-rule="evenodd" stroke="#fff" stroke-dasharray="none" stroke-linecap="butt" stroke-linejoin="miter" stroke-miterlimit="4" stroke-opacity="1" stroke-width="5" d="m 200,332.36218 c 0,11.0457 -8.95431,20 -20,20 -11.04569,0 -20,-8.9543 -20,-20 0,-11.04569 8.95431,-20 20,-20 11.04569,0 20,8.95431 20,20 z" transform="matrix(1.0526488,0,0,1.0526488,139.19046,-224.24229)"/><path id="path3780" fill="#fff" fill-rule="evenodd" stroke="#fff" stroke-dasharray="none" stroke-linecap="butt" stroke-linejoin="miter" stroke-miterlimit="4" stroke-opacity="1" stroke-width="5" d="m 200,332.36218 c 0,11.0457 -8.95431,20 -20,20 -11.04569,0 -20,-8.9543 -20,-20 0,-11.04569 8.95431,-20 20,-20 11.04569,0 20,8.95431 20,20 z" transform="matrix(1.0526488,0,0,1.0526488,351.22401,-222.73851)"/><path id="path3784" fill="#fff" fill-rule="evenodd" stroke="#fff" stroke-dasharray="none" stroke-linecap="butt" stroke-linejoin="miter" stroke-miterlimit="4" stroke-opacity="1" stroke-width="5" d="m 200,332.36218 c 0,11.0457 -8.95431,20 -20,20 -11.04569,0 -20,-8.9543 -20,-20 0,-11.04569 8.95431,-20 20,-20 11.04569,0 20,8.95431 20,20 z" transform="matrix(1.0526488,0,0,1.0526488,137.68667,201.32858)"/><path id="path3786" fill="#fff" fill-rule="evenodd" stroke="#fff" stroke-dasharray="none" stroke-linecap="butt" stroke-linejoin="miter" stroke-miterlimit="4" stroke-opacity="1" stroke-width="5" d="m 200,332.36218 c 0,11.0457 -8.95431,20 -20,20 -11.04569,0 -20,-8.9543 -20,-20 0,-11.04569 8.95431,-20 20,-20 11.04569,0 20,8.95431 20,20 z" transform="matrix(1.0526488,0,0,1.0526488,348.216,201.32858)"/><path id="path3788" fill="#e6e6e6" fill-rule="evenodd" stroke="gray" stroke-dasharray="none" stroke-linecap="butt" stroke-linejoin="miter" stroke-miterlimit="4" stroke-opacity="1" stroke-width="5" d="m 200,332.36218 c 0,11.0457 -8.95431,20 -20,20 -11.04569,0 -20,-8.9543 -20,-20 0,-11.04569 8.95431,-20 20,-20 11.04569,0 20,8.95431 20,20 z" transform="matrix(1.0526488,0,0,1.0526488,-74.346875,201.32858)"/><path id="path3790" fill="#e6e6e6" fill-rule="evenodd" stroke="gray" stroke-dasharray="none" stroke-linecap="butt" stroke-linejoin="miter" stroke-miterlimit="4" stroke-opacity="1" stroke-width="5" d="m 200,332.36218 c 0,11.0457 -8.95431,20 -20,20 -11.04569,0 -20,-8.9543 -20,-20 0,-11.04569 8.95431,-20 20,-20 11.04569,0 20,8.95431 20,20 z" transform="matrix(1.0526488,0,0,1.0526488,136.18289,410.35457)"/><path id="path3792" fill="#e6e6e6" fill-rule="evenodd" stroke="#fff" stroke-dasharray="none" stroke-linecap="butt" stroke-linejoin="miter" stroke-miterlimit="4" stroke-opacity="1" stroke-width="5" d="m 200,332.36218 c 0,11.0457 -8.95431,20 -20,20 -11.04569,0 -20,-8.9543 -20,-20 0,-11.04569 8.95431,-20 20,-20 11.04569,0 20,8.95431 20,20 z" transform="matrix(1.0526488,0,0,1.0526488,136.18305,-430.26071)"/><path id="path3794" fill="#fff" fill-rule="evenodd" stroke="#fff" stroke-dasharray="none" stroke-linecap="butt" stroke-linejoin="miter" stroke-miterlimit="4" stroke-opacity="1" stroke-width="5" d="m 200,332.36218 c 0,11.0457 -8.95431,20 -20,20 -11.04569,0 -20,-8.9543 -20,-20 0,-11.04569 8.95431,-20 20,-20 11.04569,0 20,8.95431 20,20 z" transform="matrix(1.0526488,0,0,1.0526488,-172.0028,-315.52135)"/><path id="path3796" fill="#fff" fill-rule="evenodd" stroke="#fff" stroke-dasharray="none" stroke-linecap="butt" stroke-linejoin="miter" stroke-miterlimit="4" stroke-opacity="1" stroke-width="5" d="m 200,332.36218 c 0,11.0457 -8.95431,20 -20,20 -11.04569,0 -20,-8.9543 -20,-20 0,-11.04569 8.95431,-20 20,-20 11.04569,0 20,8.95431 20,20 z" transform="matrix(1.0526488,0,0,1.0526488,440.63698,-315.52156)"/><path id="path3798" fill="#fff" fill-rule="evenodd" stroke="#fff" stroke-dasharray="none" stroke-linecap="butt" stroke-linejoin="miter" stroke-miterlimit="4" stroke-opacity="1" stroke-width="5" d="m 200,332.36218 c 0,11.0457 -8.95431,20 -20,20 -11.04569,0 -20,-8.9543 -20,-20 0,-11.04569 8.95431,-20 20,-20 11.04569,0 20,8.95431 20,20 z" transform="matrix(1.0526488,0,0,1.0526488,-172.00337,297.48129)"/><path id="path3800" fill="#fff" fill-rule="evenodd" stroke="#fff" stroke-dasharray="none" stroke-linecap="butt" stroke-linejoin="miter" stroke-miterlimit="4" stroke-opacity="1" stroke-width="5" d="m 200,332.36218 c 0,11.0457 -8.95431,20 -20,20 -11.04569,0 -20,-8.9543 -20,-20 0,-11.04569 8.95431,-20 20,-20 11.04569,0 20,8.95431 20,20 z" transform="matrix(1.0526488,0,0,1.0526488,440.63698,297.48129)"/><path id="path3911" fill="#fff" fill-rule="evenodd" stroke="#fff" stroke-dasharray="none" stroke-linecap="butt" stroke-linejoin="miter" stroke-miterlimit="4" stroke-opacity="1" stroke-width="5" d="m 200,332.36218 c 0,11.0457 -8.95431,20 -20,20 -11.04569,0 -20,-8.9543 -20,-20 0,-11.04569 8.95431,-20 20,-20 11.04569,0 20,8.95431 20,20 z" transform="matrix(1.7698571,0,0,1.7030714,219.11834,-228.55286)"/><path id="path3909" fill="#fff" fill-rule="evenodd" stroke="#fff" stroke-dasharray="none" stroke-linecap="butt" stroke-linejoin="miter" stroke-miterlimit="4" stroke-opacity="1" stroke-width="5" d="m 200,332.36218 c 0,11.0457 -8.95431,20 -20,20 -11.04569,0 -20,-8.9543 -20,-20 0,-11.04569 8.95431,-20 20,-20 11.04569,0 20,8.95431 20,20 z" transform="matrix(1.7698571,0,0,1.7030714,219.11934,-436.07486)"/><path id="path3782" fill="#fff" fill-rule="evenodd" stroke="#fff" stroke-dasharray="none" stroke-linecap="butt" stroke-linejoin="miter" stroke-miterlimit="4" stroke-opacity="1" stroke-width="5" d="m 200,332.36218 c 0,11.0457 -8.95431,20 -20,20 -11.04569,0 -20,-8.9543 -20,-20 0,-11.04569 8.95431,-20 20,-20 11.04569,0 20,8.95431 20,20 z" transform="matrix(1.7698569,0,0,1.7030711,-203.44462,-436.07476)"/><path id="path3913" fill="#fff" fill-rule="evenodd" stroke="#fff" stroke-dasharray="none" stroke-linecap="butt" stroke-linejoin="miter" stroke-miterlimit="4" stroke-opacity="1" stroke-width="5" d="m 200,332.36218 c 0,11.0457 -8.95431,20 -20,20 -11.04569,0 -20,-8.9543 -20,-20 0,-11.04569 8.95431,-20 20,-20 11.04569,0 20,8.95431 20,20 z" transform="matrix(1.7698571,0,0,1.7030714,-203.44466,-16.518864)"/><path id="path3068" fill="#fff" fill-rule="evenodd" stroke="#fff" stroke-dasharray="none" stroke-linecap="butt" stroke-linejoin="miter" stroke-miterlimit="4" stroke-opacity="1" stroke-width="5" d="m 200,332.36218 c 0,11.0457 -8.95431,20 -20,20 -11.04569,0 -20,-8.9543 -20,-20 0,-11.04569 8.95431,-20 20,-20 11.04569,0 20,8.95431 20,20 z" transform="matrix(1.7698571,0,0,1.7030714,7.0853419,191.00314)"/><path id="path3070" fill="#fff" fill-rule="evenodd" stroke="#fff" stroke-dasharray="none" stroke-linecap="butt" stroke-linejoin="miter" stroke-miterlimit="4" stroke-opacity="1" stroke-width="5" d="m 200,332.36218 c 0,11.0457 -8.95431,20 -20,20 -11.04569,0 -20,-8.9543 -20,-20 0,-11.04569 8.95431,-20 20,-20 11.04569,0 20,8.95431 20,20 z" transform="matrix(1.7698571,0,0,1.7030714,7.0853419,-645.67286)"/><path id="path3072" fill="#fff" fill-rule="evenodd" stroke="#fff" stroke-dasharray="none" stroke-linecap="butt" stroke-linejoin="miter" stroke-miterlimit="4" stroke-opacity="1" stroke-width="5" d="m 200,332.36218 c 0,11.0457 -8.95431,20 -20,20 -11.04569,0 -20,-8.9543 -20,-20 0,-11.04569 8.95431,-20 20,-20 11.04569,0 20,8.95431 20,20 z" transform="matrix(1.7698571,0,0,1.7030714,219.11834,-16.518864)"/><path id="path3074" fill="#fff" fill-rule="evenodd" stroke="#fff" stroke-dasharray="none" stroke-linecap="butt" stroke-linejoin="miter" stroke-miterlimit="4" stroke-opacity="1" stroke-width="5" d="m 200,332.36218 c 0,11.0457 -8.95431,20 -20,20 -11.04569,0 -20,-8.9543 -20,-20 0,-11.04569 8.95431,-20 20,-20 11.04569,0 20,8.95431 20,20 z" transform="matrix(1.7698571,0,0,1.7030714,-203.44466,-228.55286)"/><path id="path3803" fill="#fff" fill-rule="evenodd" stroke="#fff" stroke-dasharray="none" stroke-linecap="butt" stroke-linejoin="miter" stroke-miterlimit="4" stroke-opacity="1" stroke-width="5" d="m 200,332.36218 c 0,11.0457 -8.95431,20 -20,20 -11.04569,0 -20,-8.9543 -20,-20 0,-11.04569 8.95431,-20 20,-20 11.04569,0 20,8.95431 20,20 z" transform="matrix(1.7698571,0,0,1.7030714,7.0853419,-228.55286)"/><path id="path3927-6" fill="none" stroke="#fff" stroke-dasharray="none" stroke-linecap="butt" stroke-linejoin="miter" stroke-miterlimit="4" stroke-opacity="1" stroke-width="10.615" d="M 16.651814,29.650359 323.31022,-88.295181 629.96862,29.650359 747.91416,336.30876 629.96862,642.96717"/><path id="path3929-7" fill="#fff" stroke="#fff" stroke-dasharray="none" stroke-linecap="butt" stroke-linejoin="miter" stroke-miterlimit="4" stroke-opacity="1" stroke-width="10.615" d="M 629.96862,642.96717 323.31022,760.91271"/><path id="path3931-5" fill="none" stroke="#fff" stroke-dasharray="none" stroke-linecap="butt" stroke-linejoin="miter" stroke-miterlimit="4" stroke-opacity="1" stroke-width="10.615" d="M 323.31022,760.91271 16.651814,642.96717 -101.29373,336.30876 16.651814,29.650359"/></g></g></g></g></svg>